<svg width="190" height="67" viewBox="0 0 190 67" fill="none" xmlns="http://www.w3.org/2000/svg">
<path d="M149.128 40.1898C147.364 39.4423 145.599 38.895 143.993 37.6537C145.44 37.5736 146.541 38.2544 147.762 38.5347C146.024 37.1065 144.166 35.8384 142.813 33.9831C144.246 34.9308 145.679 35.8651 147.112 36.8128C147.151 36.7728 147.191 36.7461 147.218 36.706C146.249 35.6916 145.294 34.6905 144.325 33.6761C144.365 33.6094 144.405 33.5426 144.445 33.4759C144.843 33.6895 145.307 33.8229 145.625 34.1299C146.912 35.3446 148.146 36.6126 149.394 37.8673C149.725 38.201 150.017 38.548 150.389 38.9484C150.654 38.6948 150.853 38.4813 151.065 38.3077C151.437 38.0274 151.371 37.7605 151.145 37.4135C149.487 34.9041 147.284 32.9553 144.723 31.4737C142.76 30.3392 140.637 29.485 138.593 28.4972C137.718 28.0701 136.855 27.6163 135.979 27.1758C136.019 27.069 136.046 26.9622 136.086 26.8555C136.736 26.9889 137.399 27.1091 138.195 27.2692C136.935 26.1881 135.515 25.4807 134.719 24.1059C134.759 24.0525 134.785 23.9857 134.825 23.9323C136.417 24.9201 137.996 25.9078 139.761 27.0023C138.58 25.3872 137.519 23.9457 136.47 22.5041C136.523 22.4507 136.577 22.3974 136.643 22.344C137.187 22.8779 137.757 23.3717 138.262 23.9323C139.615 25.454 140.889 27.0557 142.295 28.5106C142.945 29.178 143.834 29.6051 144.604 30.1523C145.652 30.8865 146.687 31.6339 147.828 32.4481C147.748 32.2079 147.722 32.0477 147.642 31.9276C145.453 28.2169 143.051 24.6398 140 21.5698C139.469 21.0359 138.752 20.6488 138.063 20.3285C136.882 19.7946 135.634 19.3941 134.427 18.927C133.697 18.6467 132.981 18.3263 132.477 17.6856C132.503 17.6055 132.53 17.5388 132.556 17.4587C133.604 17.7257 134.666 18.006 135.714 18.2729C133.657 16.4043 131.415 14.7225 130.035 12.2131C131.906 13.7614 133.777 15.3098 135.634 16.8714C135.688 16.8314 135.741 16.778 135.78 16.738C134.772 15.2964 133.764 13.8415 132.769 12.4C132.835 12.3332 132.901 12.2665 132.968 12.1998C133.286 12.4667 133.657 12.6936 133.91 13.014C134.998 14.4288 135.993 15.9371 137.147 17.3119C138.129 18.4731 139.296 19.4876 140.318 20.6088C141.26 21.6365 142.123 22.731 143.012 23.7989C143.144 23.959 143.29 24.1325 143.423 24.2927C143.476 24.266 143.529 24.2393 143.595 24.1993C143.423 23.7989 143.25 23.3851 143.065 22.998C142.189 21.1694 141.419 19.2607 140.384 17.5255C138.978 15.1763 137.253 13.054 135.037 11.3989C134.467 10.9718 133.737 10.7849 133.06 10.5046C132.052 10.0775 130.964 9.79718 130.141 8.86284C131.336 8.58254 132.291 9.3834 133.551 9.58361C132.45 8.38232 130.831 7.94185 130.301 6.44692C130.354 6.36683 130.393 6.30009 130.447 6.22C130.964 6.51365 131.495 6.82065 132.105 7.16769C131.627 6.31344 131.19 5.53927 130.765 4.75176C130.805 4.71172 130.845 4.67168 130.884 4.63164C131.163 4.85854 131.481 5.04541 131.694 5.31237C133.06 7.03421 134.374 8.7961 135.754 10.4913C136.961 11.9728 138.235 13.4144 139.575 14.8159C139.097 13.708 138.66 12.5868 138.129 11.5057C137.465 10.1309 136.975 8.66262 135.86 7.55477C134.347 6.05983 132.861 4.55155 131.375 3.02992C130.951 2.58945 130.593 2.09558 130.287 1.53498C132.079 2.38923 133.299 3.93756 134.732 5.23228C134.785 5.19224 134.838 5.16554 134.891 5.1255C134.082 3.45704 133.273 1.80193 132.45 0.133476C132.516 0.0934335 132.596 0.0400429 132.662 0C133.949 1.92206 135.25 3.84412 136.537 5.76618C136.576 5.75284 136.63 5.73949 136.669 5.72614C136.417 4.35134 136.165 2.98987 135.926 1.61507C136.006 1.58837 136.086 1.56168 136.165 1.54833C136.271 1.82863 136.404 2.09558 136.457 2.38923C136.709 3.63056 136.855 4.89859 137.213 6.09988C137.678 7.62151 138.301 9.08975 138.898 10.558C139.23 11.3855 139.655 12.1864 140.146 12.9873C140.199 10.4646 139.442 7.9819 139.734 5.45919C139.814 5.44584 139.88 5.43249 139.96 5.4058C140.185 6.00644 140.398 6.60709 140.623 7.20773C140.663 7.20773 140.703 7.20773 140.743 7.20773C140.942 6.11322 141.141 5.00537 141.366 3.80408C142.003 4.2579 141.963 4.76511 141.91 5.23228C141.685 7.16769 141.433 9.1031 141.194 11.0252C141.167 11.212 141.194 11.3989 141.26 11.5991C141.99 10.3845 142.269 8.94292 143.25 7.90181C143.317 7.91516 143.383 7.94185 143.436 7.9552C143.423 8.15541 143.449 8.36897 143.383 8.54249C143.051 9.55692 142.72 10.558 142.348 11.5591C141.738 13.1875 141.406 14.8559 141.698 16.5778C141.857 17.4988 142.282 18.3797 142.667 19.2473C143.635 21.463 144.63 23.6654 145.652 25.8544C146.116 26.8555 146.647 27.8165 147.151 28.8042C147.231 28.7909 147.297 28.7642 147.377 28.7508C147.284 28.2169 147.231 27.6697 147.112 27.1358C146.806 25.8544 146.461 24.573 146.143 23.2916C145.838 22.0904 145.506 20.9024 145.254 19.6878C145.108 18.967 145.081 18.2195 145.002 17.4854C145.095 17.4587 145.174 17.4454 145.267 17.4187C145.599 18.2062 145.944 19.0071 146.342 19.9681C146.568 18.6066 146.767 17.4053 146.966 16.204C147.032 16.204 147.098 16.2174 147.151 16.2174C147.244 17.8458 147.337 19.4876 147.443 21.116C147.496 21.1293 147.549 21.1293 147.616 21.1427C148.08 20.1016 148.2 18.8869 149.274 18.1128C149.195 18.5933 149.142 19.0604 149.035 19.541C148.651 21.2628 148.133 22.9713 147.881 24.7198C147.748 25.6809 148.027 26.6953 148.173 27.683C148.372 28.9777 148.399 30.3659 148.916 31.5138C149.805 33.4759 151.026 35.2778 152.153 37.2399C152.485 36.9196 152.671 36.7194 152.883 36.5325C153.202 36.2522 153.202 35.9853 153.042 35.5982C152.459 34.2367 151.901 32.8619 151.371 31.4871C151.211 31.06 151.185 30.5928 151.105 30.139C151.185 30.1123 151.251 30.0723 151.331 30.0456C151.782 30.8998 152.246 31.7407 152.804 32.7818C152.697 30.6729 152.167 28.7508 152.737 26.8154C153.507 28.0568 153.241 29.565 153.772 31.0466C154.077 29.9655 154.343 29.0311 154.608 28.0701C155.272 28.257 155.272 28.6707 155.179 29.0979C154.927 30.3525 154.635 31.6072 154.383 32.8619C154.276 33.4225 154.237 33.9965 154.184 34.5704C154.17 34.7039 154.276 34.8374 154.356 35.091C157.288 32.1945 160.154 29.3648 163.02 26.5351C161.547 24.88 161.056 22.9846 161.534 20.9158C161.72 20.1283 162.131 19.3007 162.675 18.7134C167.797 13.094 172.971 7.51473 178.133 1.92206C178.186 1.85533 178.265 1.81528 178.332 1.76189C179.221 2.2691 179.34 2.90979 178.703 3.64391C174.802 8.15541 170.888 12.6669 167.001 17.1918C166.735 17.4988 166.377 17.8325 166.802 18.2863C167.16 18.66 167.863 18.7401 168.261 18.3931C168.818 17.8858 169.336 17.3386 169.867 16.8047C173.622 12.9739 177.39 9.14314 181.145 5.31237C181.304 5.15219 181.423 4.96533 181.556 4.8185C182.551 5.35241 182.684 5.99309 182.007 6.76726C178.146 11.2254 174.285 15.6968 170.437 20.1549C170.119 20.5153 169.615 20.8891 170.185 21.4363C170.596 21.8368 171.313 21.77 171.791 21.2895C173.993 19.0471 176.182 16.778 178.411 14.5489C180.614 12.3599 182.843 10.2109 185.112 8.00859C185.842 8.38232 185.988 9.0764 185.364 9.79718C181.49 14.2686 177.615 18.7534 173.741 23.2383C173.449 23.5719 172.905 23.9056 173.423 24.4662C173.847 24.9334 174.55 24.9067 175.081 24.3862C176.74 22.7177 178.385 21.0359 180.03 19.3541C182.617 16.7113 185.205 14.0551 187.805 11.4122C187.965 11.2521 188.124 11.1186 188.429 10.8249C188.694 11.3588 188.92 11.8127 189.145 12.2798C187.593 13.9616 186.08 15.6167 184.568 17.2585C180.972 21.156 177.337 25.0135 173.807 28.9644C171.645 31.3937 168.274 31.4471 166.218 29.4182C166.152 29.3515 166.085 29.3114 165.966 29.218C165.753 29.4716 165.528 29.7119 165.329 29.9655C163.418 32.2479 161.508 34.5304 159.597 36.7861C159.305 37.1332 159.225 37.4268 159.385 37.8673C159.703 38.7883 159.942 39.7359 160.234 40.6703C160.287 40.8571 160.393 41.0307 160.539 41.2042C160.751 39.6826 160.181 38.1209 160.897 36.4791C161.083 37.1198 161.295 37.6137 161.362 38.1209C161.534 39.5758 161.6 41.0307 161.8 42.4856C162.065 44.421 162.45 46.343 163.591 47.9981C164.612 49.4931 165.581 51.0414 166.669 52.4963C167.133 53.1236 167.797 53.6175 168.407 54.1247C169.84 55.3126 171.286 56.4739 172.733 57.6485C172.865 57.7553 173.011 57.822 173.21 57.9421C171.764 56.2069 170.304 54.5785 168.978 52.8433C167.651 51.1215 166.165 49.5064 165.249 47.5043C165.316 47.4509 165.395 47.3842 165.462 47.3308C166.39 48.4386 167.319 49.5331 168.354 50.7478C167.611 48.9458 166.934 47.2907 166.258 45.6223C166.337 45.5822 166.417 45.5555 166.496 45.5155C167.558 47.5577 168.42 49.72 169.906 51.5219C169.668 49.9602 169.429 48.4119 169.19 46.8502C170.105 47.5176 170.159 48.492 170.371 49.3863C170.596 50.374 170.782 51.3751 170.968 52.3762C171.247 53.8444 171.791 55.1658 172.879 56.247C174.325 57.7019 175.612 59.3703 177.191 60.6651C178.809 61.9865 180.667 63.0142 182.471 64.0954C183.878 64.923 185.364 65.6304 186.81 66.3778C186.943 66.4446 187.062 66.538 187.115 66.7249C186.213 66.3512 185.258 66.0442 184.395 65.5903C182.047 64.3357 179.751 62.9609 177.39 61.7195C175.147 60.5449 172.892 59.3303 170.53 58.4226C169.23 57.9288 167.704 58.0222 166.284 57.9021C165.249 57.8087 164.214 57.822 163.179 57.7286C162.821 57.7019 162.476 57.515 162.131 57.2881C163.272 56.6207 164.493 57.0078 165.687 56.7942C164.002 56.2737 162.33 55.7531 160.645 55.2326C160.658 55.1525 160.672 55.0857 160.698 55.0057C161.322 54.6453 161.972 54.8188 162.622 54.9656C163.246 55.0991 163.869 55.2726 164.533 55.286C162.967 54.3249 161.401 53.3505 159.836 52.3895C161.468 52.5497 162.848 53.3105 164.241 54.0313C165.86 54.8855 167.439 55.8332 169.057 56.7008C169.747 57.0612 170.49 57.3281 171.207 57.6351C171.247 57.5817 171.273 57.5284 171.313 57.475C170.822 57.0612 170.331 56.6608 169.84 56.2336C166.669 53.4573 163.047 51.3884 159.265 49.6132C158.323 49.1727 157.169 49.1727 156.107 48.9458C155.072 48.7323 154.038 48.532 153.016 48.2784C152.697 48.1984 152.406 47.9714 151.994 47.7579C153.016 47.1439 153.945 47.7445 155.033 47.6378C153.905 47.0505 152.923 46.5566 151.901 46.036C150.88 47.2507 149.871 48.452 148.863 49.6532C144.537 54.8321 140.212 59.9977 135.887 65.1766C134.812 66.4579 133.445 66.8984 131.84 66.4713C130.208 66.0308 129.292 64.8963 128.961 63.2411C128.616 61.5326 129.08 60.1445 130.34 58.9032C136.457 52.9101 142.534 46.8903 148.624 40.8705C148.717 40.6302 148.889 40.43 149.128 40.1898ZM158.801 37.6404C157.952 38.6414 157.182 39.5224 156.452 40.4434C156.333 40.5902 156.333 40.9506 156.426 41.1374C157.368 43.0595 158.602 44.7814 160.088 46.3163C160.486 46.7301 160.831 47.1973 161.216 47.6111C161.693 48.1316 162.211 48.6121 162.715 49.1193C162.795 49.0526 162.874 48.9992 162.954 48.9325C162.264 47.7178 161.574 46.4899 160.871 45.2752C159.902 43.5934 158.907 41.9116 157.965 40.2165C157.792 39.9095 157.806 39.4823 157.726 39.1086C157.819 39.0686 157.912 39.0285 158.005 38.9885C158.589 39.9362 159.186 40.8838 159.769 41.8182C159.823 41.7915 159.862 41.7781 159.915 41.7514C159.57 40.4434 159.199 39.1086 158.801 37.6404ZM153.387 44.1006C155.948 46.9437 159.212 48.5187 162.503 50.0804C159.836 47.6644 157.62 44.7413 154.356 42.926C154.038 43.3265 153.719 43.7135 153.387 44.1006Z" fill="#417F56"/>
<path d="M0 17.2646C0 17.1666 0.0565434 17.1176 0.16963 17.1176C0.316224 17.1176 0.54868 17.2134 0.866998 17.4051C3.82401 19.2621 7.66267 20.1906 12.383 20.1906C15.273 20.1906 18.0897 19.6817 20.8331 18.6637C21.3148 18.4806 21.8132 18.1824 22.3283 17.7693C22.7556 17.3689 23.1891 16.9728 23.6288 16.5809L23.6791 16.5043C23.6791 16.3722 23.4131 16.2679 22.8812 16.1912C22.588 16.1273 22.2781 16.0826 21.9514 16.0571C21.7462 16.023 21.5158 15.9144 21.2603 15.7312C20.9755 15.5566 20.8247 15.3649 20.808 15.1562V14.6579C20.808 13.8359 21.1702 12.9393 21.8948 11.9682C22.6194 10.9971 23.3587 10.437 24.1126 10.288C24.5189 10.4626 24.722 10.7373 24.722 11.1121C24.722 11.2782 24.678 11.5146 24.5901 11.8213C24.4812 12.1492 24.3451 12.3281 24.1817 12.3579C23.8466 12.0087 23.6267 11.834 23.522 11.834C23.2498 11.834 22.8309 12.1556 22.2655 12.7988C21.7043 13.4376 21.4236 13.904 21.4236 14.1979C21.4236 14.2959 21.4383 14.3576 21.4676 14.3832C21.7734 14.5919 22.0561 14.7133 22.3158 14.7474C23.1618 14.8709 23.6079 14.9411 23.654 14.9582C24.1691 15.1158 24.4267 15.448 24.4267 15.9548C24.4267 16.7641 24.0749 17.5627 23.3713 18.3507C22.7514 19.0023 22.031 19.4985 21.21 19.8392C19.92 20.3546 18.4645 20.7869 16.8436 21.1362C15.1557 21.5025 13.6605 21.6856 12.3579 21.6856C8.84799 21.6856 6.08574 21.2916 4.07112 20.5037C3.61459 20.295 3.32978 20.1651 3.21669 20.114C2.4544 19.5901 1.84708 19.1535 1.39474 18.8043C0.464912 17.995 0 17.4818 0 17.2646Z" fill="#417F56"/>
<path d="M25.7147 6.40355C25.8194 5.71355 25.9869 5.27273 26.2173 5.08106C26.255 5.12365 26.2864 5.15347 26.3115 5.1705C26.4204 5.76254 26.5502 6.72086 26.701 8.04548C26.8518 9.36583 26.9775 10.5542 27.078 11.6104C27.1827 12.6667 27.235 13.2247 27.235 13.2843C27.235 13.4078 27.2036 13.6038 27.1408 13.8721C27.0822 14.1362 26.9586 14.315 26.7701 14.4087C26.6361 13.3269 26.5021 12.2515 26.368 11.1824C26.2382 10.1133 26.0958 9.0613 25.9408 8.02631C25.7901 6.98706 25.7147 6.44614 25.7147 6.40355Z" fill="#417F56"/>
<path d="M31.4193 13.0863C31.4193 12.737 31.5679 12.1748 31.8653 11.3996C32.192 10.6415 32.4726 10.1261 32.7072 9.85351C33.2642 10.1517 33.6621 10.4179 33.9009 10.6521C34.2276 10.9929 34.3909 11.4337 34.3909 11.9746C34.3909 12.9713 34.0559 13.6825 33.3857 14.1085C33.3354 14.1937 33.1847 14.2597 32.9334 14.3065C32.6862 14.3491 32.4936 14.3704 32.3554 14.3704C32.058 14.3704 31.8192 14.2299 31.6391 13.9488C31.4926 13.6889 31.4193 13.4014 31.4193 13.0863ZM32.2046 12.4985C32.2046 12.5964 32.2611 12.6987 32.3742 12.8052C32.4915 12.9074 32.5836 12.9585 32.6506 12.9585H32.8454C33.2559 12.9585 33.5218 12.8712 33.6433 12.6965C33.6433 12.3814 33.5365 12.1045 33.3229 11.866C33.1093 11.6232 32.8684 11.4763 32.6004 11.4252C32.3365 11.8894 32.2046 12.2472 32.2046 12.4985Z" fill="#417F56"/>
<path d="M34.7365 18.2548C34.7365 18.1696 35.0422 18.0397 35.6537 17.8651C36.571 17.5584 37.2013 17.3008 37.5448 17.0921C38.1856 16.7087 38.6233 16.2679 38.8578 15.7696C38.8997 15.646 38.9207 15.5758 38.9207 15.5587C38.9207 15.0178 38.8725 14.577 38.7762 14.2362C38.7259 14.0914 38.5291 13.674 38.1856 12.984C38.2401 12.294 38.3343 11.8788 38.4683 11.7382L38.7259 11.8979C38.9688 12.2813 39.1071 12.4942 39.1406 12.5368C39.2955 12.7114 39.5091 12.8392 39.7814 12.9201C40.1165 13.0564 40.3322 13.1033 40.4285 13.0607V14.3832C40.1018 14.4002 39.7793 14.3619 39.461 14.2682V14.8687C39.461 15.661 39.2369 16.4021 38.7887 17.0921C38.3448 17.782 37.771 18.274 37.0673 18.5679C35.5134 18.6147 34.7365 18.5104 34.7365 18.2548Z" fill="#417F56"/>
<path d="M40.1772 13.0607C40.3908 13.0692 40.7028 12.9819 41.1133 12.7988C41.5238 12.6156 41.7688 12.524 41.8484 12.524C42.0033 12.524 42.2714 12.6135 42.6525 12.7924C43.0337 12.9713 43.3394 13.0607 43.5698 13.0607V14.3832C43.3059 14.3832 42.9876 14.2852 42.6148 14.0893C42.2421 13.8934 41.9866 13.7954 41.8484 13.7954C41.7855 13.7954 41.5698 13.8934 41.2013 14.0893C40.8327 14.2852 40.529 14.3832 40.2903 14.3832H40.1772V13.0607ZM41.9489 16.5618C42.1457 15.9783 42.3258 15.6567 42.4892 15.5971C42.6358 15.6737 42.7949 15.7696 42.9667 15.8846C43.1468 16.0336 43.2703 16.1678 43.3373 16.2871C43.2075 16.96 43.0232 17.2965 42.7845 17.2965C42.6965 17.2965 42.5374 17.2049 42.307 17.0218C42.1269 16.8301 42.0075 16.6768 41.9489 16.5618ZM40.4411 17.1496C40.4411 16.9494 40.596 16.6235 40.906 16.1721C41.3793 16.5043 41.6829 16.7385 41.817 16.8748V16.9196C41.817 17.0729 41.7751 17.2603 41.6913 17.4818C41.595 17.716 41.5007 17.8332 41.4086 17.8332C41.3039 17.8332 41.1154 17.7437 40.8431 17.5648C40.5751 17.3859 40.4411 17.2475 40.4411 17.1496Z" fill="#417F56"/>
<path d="M43.2871 13.0607C43.9656 13.0607 44.6923 12.9734 45.4671 12.7988C46.3048 12.5815 46.998 12.3153 47.5467 12.0002C46.4744 11.6339 45.8671 11.4507 45.7247 11.4507C45.5446 11.4507 45.264 11.5146 44.8829 11.6424C44.5059 11.7702 44.2148 11.834 44.0096 11.834C44.2148 11.1015 44.3363 10.7203 44.374 10.6904C44.4829 10.4817 44.7572 10.2603 45.197 10.026C45.3478 9.94083 45.5572 9.89823 45.8252 9.89823C45.9383 9.89823 46.4011 10.0771 47.2137 10.4349C48.1142 10.8438 48.6545 11.078 48.8346 11.1377C49.7686 11.4273 50.6566 11.5721 51.4984 11.5721C51.578 11.6403 51.622 11.6956 51.6304 11.7382C51.6304 11.8958 51.5215 12.2067 51.3037 12.671H51.0901C50.5204 12.671 50.0911 12.6263 49.8021 12.5368L49.7644 12.7221L49.8021 12.9457C49.9739 13.1203 50.2272 13.2076 50.5623 13.2076C51.0649 13.2076 51.5361 13.1587 51.9759 13.0607V14.3832L50.6 14.4087C50.2649 14.4173 49.9885 14.3065 49.7707 14.0765C49.5571 13.8465 49.4503 13.5612 49.4503 13.2204C49.4503 13.1651 49.4587 13.0841 49.4754 12.9776C49.4964 12.8669 49.5068 12.7817 49.5068 12.7221V12.5368C49.1089 12.5368 48.644 12.6284 48.1121 12.8115C47.3833 13.0841 46.8137 13.3205 46.4032 13.5207C45.5991 13.8529 45.1153 14.0403 44.952 14.0829C44.4033 14.2831 43.8965 14.3832 43.4316 14.3832H43.2871V13.0607ZM46.4849 16.5426C46.6734 15.8697 46.8703 15.5161 47.0755 15.4821C47.2053 15.4991 47.377 15.5694 47.5907 15.6929C47.8587 15.8675 47.9927 16.0166 47.9927 16.1401C47.9927 16.2338 47.9488 16.3978 47.8608 16.6321C47.777 16.845 47.687 16.9941 47.5907 17.0793H47.5278C47.3645 17.0793 47.1676 17.0218 46.9373 16.9068C46.6357 16.8131 46.4849 16.6917 46.4849 16.5426Z" fill="#417F56"/>
<path d="M51.4419 8.92074C51.6304 8.24779 51.8272 7.89427 52.0325 7.8602C52.1623 7.87724 52.334 7.94751 52.5476 8.07103C52.8157 8.24566 52.9497 8.39473 52.9497 8.51825C52.9497 8.61195 52.9057 8.77593 52.8178 9.01019C52.734 9.22315 52.644 9.37222 52.5476 9.45741H52.4848C52.3214 9.45741 52.1246 9.39991 51.8942 9.28491C51.5927 9.19121 51.4419 9.06982 51.4419 8.92074ZM51.7623 13.0607C52.3445 13.0692 52.6733 12.9436 52.7487 12.6838C52.7235 12.5773 52.6209 12.3771 52.4408 12.0832C52.2858 11.8362 52.1958 11.6296 52.1707 11.4635C52.267 11.1866 52.3822 10.8779 52.5162 10.5371H52.5728C52.7612 10.5371 52.9413 10.8118 53.1131 11.3613C53.2932 11.8426 53.3832 12.2216 53.3832 12.4985C53.3832 13.099 53.289 13.5484 53.1005 13.8465C52.8743 14.2043 52.4869 14.3832 51.9382 14.3832H51.7623V13.0607Z" fill="#417F56"/>
<path d="M52.9497 17.0537C54.0973 16.9813 54.7738 16.9196 54.979 16.8684C55.5863 16.6768 56.179 16.2956 56.757 15.7248C57.3391 15.1541 57.7329 14.5536 57.9381 13.9232C57.7412 13.5739 57.5528 13.2311 57.3727 12.8946C57.0795 12.3324 56.9329 11.964 56.9329 11.7893L56.9769 11.6488C56.9936 11.6147 57.0481 11.4741 57.1402 11.2271C57.2114 11.0099 57.2805 10.9013 57.3475 10.9013C57.5444 10.9013 57.7768 11.193 58.0449 11.7765C58.3171 12.2834 58.4533 12.6646 58.4533 12.9201C58.4533 14.6196 57.9465 15.9889 56.9329 17.0282C56.4554 17.4967 55.9633 17.7309 55.4565 17.7309C55.1549 17.7309 54.3905 17.6223 53.1633 17.4051C53.1298 17.3795 53.0586 17.3008 52.9497 17.1687V17.0537ZM55.7392 9.51491C55.9277 8.84195 56.1245 8.48843 56.3297 8.45436C56.4596 8.4714 56.6313 8.54167 56.8449 8.66519C57.113 8.83982 57.247 8.98889 57.247 9.11241C57.247 9.20611 57.203 9.37009 57.1151 9.60435C57.0313 9.81731 56.9412 9.96638 56.8449 10.0516H56.7821C56.6187 10.0516 56.4219 9.99407 56.1915 9.87907C55.89 9.78537 55.7392 9.66398 55.7392 9.51491Z" fill="#417F56"/>
<path d="M44.1792 17.2646C44.1792 17.1666 44.2357 17.1176 44.3488 17.1176C44.4954 17.1176 44.7279 17.2134 45.0462 17.4051C48.0032 19.2621 51.8419 20.1906 56.5622 20.1906C59.4522 20.1906 62.2689 19.6817 65.0123 18.6637C65.494 18.4806 65.9924 18.1824 66.5075 17.7693C66.9348 17.3689 67.3683 16.9728 67.808 16.5809L67.8583 16.5043C67.8583 16.3722 67.5923 16.2679 67.0604 16.1912C66.7672 16.1273 66.4573 16.0826 66.1306 16.0571C65.9254 16.023 65.695 15.9144 65.4395 15.7312C65.1547 15.5566 65.0039 15.3649 64.9872 15.1562V14.6579C64.9872 13.8359 65.3495 12.9393 66.0741 11.9682C66.7986 10.9971 67.5379 10.437 68.2918 10.288C68.6981 10.4626 68.9012 10.7373 68.9012 11.1121C68.9012 11.2782 68.8572 11.5146 68.7693 11.8213C68.6604 12.1492 68.5243 12.3281 68.3609 12.3579C68.0258 12.0087 67.806 11.834 67.7012 11.834C67.429 11.834 67.0102 12.1556 66.4447 12.7988C65.8835 13.4376 65.6029 13.904 65.6029 14.1979C65.6029 14.2959 65.6175 14.3576 65.6468 14.3832C65.9526 14.5919 66.2353 14.7133 66.495 14.7474C67.341 14.8709 67.7871 14.9411 67.8332 14.9582C68.3484 15.1158 68.6059 15.448 68.6059 15.9548C68.6059 16.7641 68.2541 17.5627 67.5505 18.3507C66.9306 19.0023 66.2102 19.4985 65.3892 19.8392C64.0992 20.3546 62.6438 20.7869 61.0228 21.1362C59.3349 21.5025 57.8397 21.6856 56.5371 21.6856C53.0272 21.6856 50.2649 21.2916 48.2503 20.5037C47.7938 20.295 47.509 20.1651 47.3959 20.114C46.6336 19.5901 46.0263 19.1535 45.5739 18.8043C44.6441 17.995 44.1792 17.4818 44.1792 17.2646Z" fill="#417F56"/>
<path d="M69.6112 6.30771C69.7326 5.61346 69.8185 5.17902 69.8687 5.00439C69.9818 5.10662 70.0593 5.28976 70.1012 5.55383C70.1556 5.67309 70.1954 5.86476 70.2206 6.12883C70.6478 9.31046 70.8656 10.9716 70.874 11.1121C70.9954 11.9427 71.0897 12.4133 71.1567 12.524C71.3451 12.8818 71.7053 13.0607 72.2373 13.0607V14.3832C71.4834 14.3832 71.0247 14.2341 70.8614 13.936C70.7315 13.7528 70.5996 13.3354 70.4656 12.6838C70.4279 12.3941 70.3672 11.9448 70.2834 11.3357C69.9818 8.75464 69.7577 7.07863 69.6112 6.30771Z" fill="#417F56"/>
<path d="M71.9923 13.0607C72.3315 13.0607 72.7127 13.0053 73.1357 12.8946C73.6425 12.7711 73.9985 12.6305 74.2037 12.4729C73.9817 11.9831 73.8708 11.7084 73.8708 11.6488C73.8708 11.4571 73.9566 11.225 74.1283 10.9524C74.3084 10.6329 74.4152 10.4115 74.4487 10.288C74.3273 10.2113 74.2666 10.075 74.2666 9.87907C74.2666 9.67889 74.3273 9.45315 74.4487 9.20185C74.566 8.90371 74.7063 8.75464 74.8697 8.75464C75.3849 8.75464 75.9817 9.15713 76.6602 9.96212C77.2005 10.5882 77.4832 10.9183 77.5084 10.9524C77.8602 11.4337 78.0361 11.8447 78.0361 12.1854C78.0361 12.343 77.877 12.6838 77.5586 13.2076C77.4665 13.3269 77.299 13.3865 77.056 13.3865C76.2351 13.3865 75.6194 13.2822 75.2089 13.0735C74.7189 13.3461 74.233 13.6165 73.7514 13.8849C73.0645 14.2171 72.5158 14.3832 72.1053 14.3832H71.9923V13.0607ZM75.8246 12.2238C76.5869 12.424 77.0456 12.524 77.2005 12.524C77.3136 12.524 77.3702 12.4815 77.3702 12.3963C77.3702 12.2216 77.1754 11.9341 76.7859 11.5338C76.5052 11.2271 76.2267 10.9822 75.9503 10.7991C76.0215 11.2676 75.9796 11.7425 75.8246 12.2238ZM74.2666 11.6743C74.2666 11.7723 74.2833 11.8255 74.3168 11.834C74.5765 11.9789 74.8383 12.0342 75.1021 12.0002C75.3869 11.8085 75.5294 11.6083 75.5294 11.3996C75.5294 11.225 75.4854 11.0589 75.3974 10.9013C75.3053 10.7522 75.1859 10.6777 75.0393 10.6777C74.9095 10.6777 74.7482 10.8097 74.5555 11.0738C74.3629 11.3336 74.2666 11.5338 74.2666 11.6743Z" fill="#417F56"/>
<path d="M61.6008 17.0282C61.6008 16.9643 61.649 16.9323 61.7453 16.9323C61.8668 16.9323 62.1286 17.0431 62.5307 17.2646C64.7505 18.406 66.6541 19.1727 68.2415 19.5645C70.009 19.9819 72.0258 20.1906 74.2917 20.1906C77.7722 20.1906 80.524 19.8627 82.547 19.2068C84.5742 18.5551 86.1113 17.3221 87.1584 15.5076C87.1584 14.9411 86.9825 14.3129 86.6307 13.6229C86.2789 12.9329 86.103 12.5496 86.103 12.4729C86.103 12.3068 86.214 11.9363 86.4359 11.3613C86.4192 11.1696 86.4569 11.0738 86.549 11.0738C86.7207 11.0738 86.9825 11.5402 87.3344 12.4729C87.6945 13.3631 87.8746 13.9615 87.8746 14.2682C88.0212 15.4523 87.5186 16.7066 86.3668 18.0312C85.2192 19.3601 83.3805 20.3418 80.8507 20.9765C78.6392 21.4152 76.499 21.6345 74.4299 21.6345C72.7839 21.6345 71.2237 21.5515 69.7494 21.3853C67.7683 21.1128 66.2835 20.7145 65.295 20.1906C64.7128 19.8967 64.0699 19.4559 63.3662 18.8681C63.0479 18.5743 62.7212 18.2953 62.3862 18.0312C61.8626 17.5542 61.6008 17.2198 61.6008 17.0282ZM83.8601 8.08381C83.8601 7.99862 83.9522 7.81974 84.1365 7.54715C84.3208 7.2703 84.4381 7.13187 84.4883 7.13187C84.5595 7.13187 84.7355 7.20641 85.0161 7.35548C85.3176 7.53011 85.4684 7.67279 85.4684 7.78353C85.4684 7.86446 85.3826 8.03483 85.2108 8.29464C85.0559 8.59278 84.9218 8.74186 84.8087 8.74186C84.7082 8.74186 84.5239 8.65667 84.2559 8.4863C83.992 8.31594 83.8601 8.18177 83.8601 8.08381Z" fill="#417F56"/>
<path d="M88.8422 6.40355C88.9469 5.71355 89.1144 5.27273 89.3448 5.08106C89.3825 5.12365 89.4139 5.15347 89.439 5.1705C89.5479 5.76254 89.6778 6.72086 89.8285 8.04548C89.9793 9.36583 90.105 10.5542 90.2055 11.6104C90.3102 12.6667 90.3626 13.2247 90.3626 13.2843C90.3626 13.4078 90.3311 13.6038 90.2683 13.8721C90.2097 14.1362 90.0861 14.315 89.8977 14.4087C89.7636 13.3269 89.6296 12.2515 89.4956 11.1824C89.3657 10.1133 89.2233 9.0613 89.0683 8.02631C88.9176 6.98706 88.8422 6.44614 88.8422 6.40355Z" fill="#417F56"/>
<path d="M89.9793 17.0537C91.1269 16.9813 91.8034 16.9196 92.0086 16.8684C92.6159 16.6768 93.2086 16.2956 93.7866 15.7248C94.3688 15.1541 94.7625 14.5536 94.9677 13.9232C94.7709 13.5739 94.5824 13.2311 94.4023 12.8946C94.1091 12.3324 93.9625 11.964 93.9625 11.7893L94.0065 11.6488C94.0232 11.6147 94.0777 11.4741 94.1698 11.2271C94.241 11.0099 94.3101 10.9013 94.3771 10.9013C94.574 10.9013 94.8064 11.193 95.0745 11.7765C95.3468 12.2834 95.4829 12.6646 95.4829 12.9201C95.4829 14.6196 94.9761 15.9889 93.9625 17.0282C93.485 17.4967 92.9929 17.7309 92.4861 17.7309C92.1845 17.7309 91.4201 17.6223 90.1929 17.4051C90.1594 17.3795 90.0882 17.3008 89.9793 17.1687V17.0537Z" fill="#417F56"/>
<path d="M95.4515 16.9451C95.485 16.9196 95.5478 16.9068 95.6399 16.9068H96.2745C97.1666 16.9068 97.7718 16.8642 98.0901 16.779C98.509 16.6384 99.0221 16.3062 99.6294 15.7823C100.266 15.2499 100.658 14.7836 100.804 14.3832C100.092 14.3832 99.6189 14.3342 99.3844 14.2362C98.9572 14.0914 98.7435 13.7209 98.7435 13.1246C98.7435 12.7498 98.8818 12.3281 99.1582 11.8596C99.4556 11.3357 99.755 11.0738 100.057 11.0738C100.279 11.0738 100.532 11.3485 100.817 11.8979C101.081 12.3239 101.257 12.7114 101.345 13.0607H101.678V14.3832H101.213C101.154 14.9752 100.825 15.6375 100.226 16.3701C99.6147 17.0601 99.0263 17.5095 98.4608 17.7182C97.954 17.633 97.3739 17.5286 96.7205 17.4051C95.8745 17.2134 95.4515 17.0601 95.4515 16.9451ZM99.4158 12.8115C99.6126 12.9776 99.8346 13.0607 100.082 13.0607C100.124 13.0607 100.176 13.0522 100.239 13.0351C100.239 12.9031 100.207 12.7732 100.145 12.6454C100.052 12.4708 99.9498 12.3835 99.8367 12.3835C99.6315 12.3835 99.4912 12.5262 99.4158 12.8115Z" fill="#417F56"/>
<path d="M101.458 13.0607C101.671 13.0692 101.983 12.9819 102.394 12.7988C102.804 12.6156 103.049 12.524 103.129 12.524C103.284 12.524 103.552 12.6135 103.933 12.7924C104.314 12.9713 104.62 13.0607 104.85 13.0607V14.3832C104.586 14.3832 104.268 14.2852 103.895 14.0893C103.522 13.8934 103.267 13.7954 103.129 13.7954C103.066 13.7954 102.85 13.8934 102.482 14.0893C102.113 14.2852 101.809 14.3832 101.571 14.3832H101.458V13.0607ZM102.965 9.39991C103.162 8.81639 103.342 8.49482 103.506 8.43519C103.652 8.51186 103.812 8.60769 103.983 8.72269C104.163 8.87176 104.287 9.00593 104.354 9.12519C104.224 9.79814 104.04 10.1346 103.801 10.1346C103.713 10.1346 103.554 10.043 103.324 9.8599C103.143 9.66824 103.024 9.51491 102.965 9.39991ZM101.458 9.98768C101.458 9.7875 101.613 9.46167 101.923 9.01019C102.396 9.34241 102.699 9.57666 102.834 9.71296V9.75768C102.834 9.91101 102.792 10.0984 102.708 10.3199C102.612 10.5542 102.517 10.6713 102.425 10.6713C102.32 10.6713 102.132 10.5818 101.86 10.403C101.592 10.2241 101.458 10.0856 101.458 9.98768Z" fill="#417F56"/>
<path d="M104.568 13.0607C105.162 13.0607 105.73 12.9904 106.27 12.8499C107.074 12.6582 107.541 12.3835 107.671 12.0257C107.801 11.6679 107.92 11.4465 108.029 11.3613C108.067 11.3868 108.086 11.4443 108.086 11.5338C108.086 11.8106 108.008 12.1812 107.853 12.6454C107.971 12.688 108.073 12.7093 108.161 12.7093C109.037 12.7093 109.646 12.5773 109.989 12.3132C110.203 12.1386 110.366 11.8511 110.479 11.4507C110.588 11.0674 110.758 10.8289 110.988 10.7352L111.02 10.7863C111.036 10.8118 111.045 10.8417 111.045 10.8757C111.045 11.0078 110.988 11.3272 110.875 11.834C110.997 12.0257 111.12 12.1428 111.246 12.1854C111.284 12.194 111.468 12.2365 111.799 12.3132L112.125 12.1854C112.125 12.096 112.107 12.0002 112.069 11.8979C112.035 11.7915 112.019 11.7169 112.019 11.6743C112.019 11.6232 112.075 11.423 112.188 11.0738C112.335 10.6734 112.408 10.4605 112.408 10.4349C112.5 10.4349 112.595 10.5818 112.691 10.8757C112.775 11.11 112.817 11.3016 112.817 11.4507C112.817 11.9661 112.727 12.4325 112.546 12.8499C112.308 13.3993 111.964 13.674 111.516 13.674C111.294 13.674 110.917 13.5101 110.385 13.1821C110.255 13.5015 109.952 13.7486 109.474 13.9232C109.106 14.0467 108.714 14.1085 108.299 14.1085C107.889 14.1085 107.508 14.0467 107.156 13.9232C106.343 14.2299 105.585 14.3832 104.882 14.3832H104.568V13.0607Z" fill="#417F56"/>
<path d="M112.609 17.0537C113.757 16.9813 114.433 16.9196 114.639 16.8684C115.246 16.6768 115.838 16.2956 116.416 15.7248C116.999 15.1541 117.392 14.5536 117.598 13.9232C117.401 13.5739 117.212 13.2311 117.032 12.8946C116.739 12.3324 116.592 11.964 116.592 11.7893L116.636 11.6488C116.653 11.6147 116.708 11.4741 116.8 11.2271C116.871 11.0099 116.94 10.9013 117.007 10.9013C117.204 10.9013 117.436 11.193 117.704 11.7765C117.977 12.2834 118.113 12.6646 118.113 12.9201C118.113 14.6196 117.606 15.9889 116.592 17.0282C116.115 17.4967 115.623 17.7309 115.116 17.7309C114.814 17.7309 114.05 17.6223 112.823 17.4051C112.789 17.3795 112.718 17.3008 112.609 17.1687V17.0537Z" fill="#417F56"/>
<path d="M24.1633 49.3654H22.0677C19.3847 49.3654 17.043 48.5419 15.0426 46.8949C13.1692 45.3587 11.8357 43.3 11.0419 40.7186C10.6926 39.5784 9.9226 39.0082 8.7319 39.0082C8.03336 39.0082 7.43801 39.2458 6.94586 39.7209C6.46958 40.1802 6.23144 40.7503 6.23144 41.4312C6.23144 42.1122 6.46958 42.6982 6.94586 43.1891C7.43801 43.6642 8.03336 43.9018 8.7319 43.9018H12.5659V49.3654H8.99386C6.77122 49.3654 4.85023 48.6131 3.23089 47.1087C1.62742 45.6042 0.825684 43.7117 0.825684 41.4312C0.825684 39.2616 1.59567 37.4087 3.13563 35.8726C4.6756 34.3364 6.54102 33.5684 8.7319 33.5684C10.4306 33.5684 11.9865 34.091 13.3994 35.1362C14.8124 36.1656 15.7808 37.4958 16.3047 39.127C17.289 42.3102 19.21 43.9018 22.0677 43.9018H24.1633V49.3654Z" fill="#417F56"/>
<path d="M34.5462 29.1737H31.8314C31.0852 29.1737 30.4423 28.9124 29.9025 28.3898C29.3627 27.8514 29.0928 27.21 29.0928 26.4657C29.0928 25.7213 29.3627 25.08 29.9025 24.5415C30.4423 24.0031 31.0852 23.7338 31.8314 23.7338C32.5776 23.7338 33.2126 24.0031 33.7365 24.5415C34.2763 25.08 34.5462 25.7213 34.5462 26.4657V29.1737ZM43.9289 49.3654H41.8094C39.6027 49.3654 37.5706 48.6923 35.7131 47.3462V49.3654H22.0677V43.9018H30.2597V33.7347H35.7131V37.1316C35.7131 39.0795 36.2767 40.6948 37.4039 41.9776C38.531 43.2604 39.9996 43.9018 41.8094 43.9018H43.9289V49.3654Z" fill="#417F56"/>
<path d="M63.5039 49.3654H61.3845C59.1777 49.3654 57.1456 48.6923 55.2881 47.3462V49.3654H41.6427V43.9018H49.8347V33.7347H55.2881V37.1316C55.2881 39.0795 55.8517 40.6948 56.9789 41.9776C58.1061 43.2604 59.5746 43.9018 61.3845 43.9018H63.5039V49.3654ZM59.0269 59.0336H56.2645C55.5183 59.0336 54.8753 58.7644 54.3356 58.226C53.8116 57.6875 53.5497 57.0461 53.5497 56.3018C53.5497 55.5417 53.8116 54.9003 54.3356 54.3777C54.8753 53.8551 55.5183 53.5938 56.2645 53.5938C57.0265 53.5938 57.6774 53.8551 58.2172 54.3777C58.757 54.9003 59.0269 55.5417 59.0269 56.3018V59.0336ZM52.8353 59.0336H50.0967C49.3346 59.0336 48.6837 58.7644 48.1439 58.226C47.62 57.6875 47.3581 57.0461 47.3581 56.3018C47.3581 55.5417 47.62 54.9003 48.1439 54.3777C48.6837 53.8551 49.3346 53.5938 50.0967 53.5938C50.8428 53.5938 51.4858 53.8551 52.0256 54.3777C52.5654 54.9003 52.8353 55.5417 52.8353 56.3018V59.0336Z" fill="#417F56"/>
<path d="M88.2704 49.3654H61.2178V43.9018H82.5074C82.047 42.5081 81.2215 41.3679 80.0308 40.481C78.8559 39.5942 77.5065 39.1508 75.9824 39.1508L67.8619 39.1745V33.7347H75.9824C79.364 33.7347 82.2534 34.9303 84.6507 37.3216C87.0638 39.6971 88.2704 42.5794 88.2704 45.9684V49.3654ZM74.3154 30.9316H71.6006C70.8545 30.9316 70.2115 30.6703 69.6717 30.1477C69.1319 29.6092 68.862 28.9678 68.862 28.2235C68.862 27.4792 69.1319 26.8378 69.6717 26.2994C70.2115 25.7609 70.8545 25.4917 71.6006 25.4917C72.3468 25.4917 72.9818 25.7609 73.5057 26.2994C74.0455 26.8378 74.3154 27.4792 74.3154 28.2235V30.9316Z" fill="#417F56"/>
<path d="M105.522 49.3654H103.403C101.212 49.3654 99.18 48.6923 97.3067 47.3462V48.6527C97.3067 52.0734 96.0683 54.9636 93.5917 57.3233C91.1309 59.6988 88.051 60.8865 84.3519 60.8865V55.4466C86.5587 55.4466 88.3606 54.7894 89.7577 53.475C91.1706 52.1605 91.8771 50.5531 91.8771 48.6527V33.7347H97.3067V37.1316C97.3067 39.0795 97.8703 40.6948 98.9975 41.9776C100.141 43.2604 101.609 43.9018 103.403 43.9018H105.522V49.3654Z" fill="#417F56"/>
<path d="M117.048 49.3654H103.403V43.9018H111.595V33.7347H117.048V49.3654ZM117.287 28.7936H114.524C113.778 28.7936 113.135 28.5244 112.595 27.986C112.071 27.4475 111.809 26.8061 111.809 26.0618C111.809 25.3017 112.071 24.6603 112.595 24.1377C113.135 23.6151 113.778 23.3538 114.524 23.3538C115.286 23.3538 115.937 23.6151 116.477 24.1377C117.017 24.6603 117.287 25.3017 117.287 26.0618V28.7936ZM111.095 28.7936H108.356C107.594 28.7936 106.943 28.5244 106.404 27.986C105.88 27.4475 105.618 26.8061 105.618 26.0618C105.618 25.3017 105.88 24.6603 106.404 24.1377C106.943 23.6151 107.594 23.3538 108.356 23.3538C109.102 23.3538 109.745 23.6151 110.285 24.1377C110.825 24.6603 111.095 25.3017 111.095 26.0618V28.7936Z" fill="#417F56"/>
</svg>
